<?xml version="1.0" encoding="UTF-8"?>
<svg id="Logo" xmlns="http://www.w3.org/2000/svg" viewBox="0 0 540.43 170.19">
  <defs>
    <style>
      .cls-1 {
        fill: #f79674;
        stroke-width: 0px;
      }
    </style>
  </defs>
  <g>
    <path class="cls-1" d="M.23,157.14c0-7.4,5.62-12.87,13.16-12.87,3.59,0,6.81,1.16,9.03,3.52l-1.16,1.2c-2.17-2.14-4.82-3.01-7.79-3.01-6.49,0-11.38,4.78-11.38,11.16s4.89,11.16,11.38,11.16c2.97,0,5.62-.91,7.79-3.04l1.16,1.2c-2.21,2.36-5.44,3.55-9.03,3.55-7.54,0-13.16-5.47-13.16-12.87Z"/>
    <path class="cls-1" d="M27.09,157.14c0-7.36,5.62-12.87,13.19-12.87s13.19,5.47,13.19,12.87-5.65,12.87-13.19,12.87-13.19-5.51-13.19-12.87ZM51.59,157.14c0-6.42-4.86-11.16-11.31-11.16s-11.35,4.75-11.35,11.16,4.86,11.16,11.35,11.16,11.31-4.75,11.31-11.16Z"/>
    <path class="cls-1" d="M58.77,166.56l.83-1.38c1.74,1.81,4.97,3.19,8.37,3.19,5.07,0,7.32-2.21,7.32-4.97,0-7.61-15.84-3.04-15.84-12.4,0-3.59,2.75-6.74,8.99-6.74,2.79,0,5.69.87,7.65,2.28l-.69,1.49c-2.1-1.45-4.68-2.14-6.96-2.14-4.93,0-7.14,2.28-7.14,5.08,0,7.61,15.84,3.12,15.84,12.32,0,3.59-2.86,6.71-9.13,6.71-3.77,0-7.39-1.41-9.24-3.44Z"/>
    <path class="cls-1" d="M108.86,169.82l-.04-21.71-10.62,18.34h-.91l-10.62-18.27v21.64h-1.81v-25.37h1.56l11.35,19.61,11.35-19.61h1.52l.04,25.37h-1.81Z"/>
    <path class="cls-1" d="M138.47,168.16v1.67h-17.51v-25.37h16.96v1.67h-15.12v10h13.52v1.63h-13.52v10.4h15.66Z"/>
    <path class="cls-1" d="M151.52,146.12h-9.13v-1.67h20.12v1.67h-9.13v23.71h-1.85v-23.71Z"/>
    <path class="cls-1" d="M168.51,144.45h1.85v25.37h-1.85v-25.37Z"/>
    <path class="cls-1" d="M178.23,157.14c0-7.4,5.62-12.87,13.16-12.87,3.59,0,6.81,1.16,9.03,3.52l-1.16,1.2c-2.17-2.14-4.82-3.01-7.79-3.01-6.49,0-11.38,4.78-11.38,11.16s4.89,11.16,11.38,11.16c2.97,0,5.62-.91,7.79-3.04l1.16,1.2c-2.21,2.36-5.44,3.55-9.03,3.55-7.54,0-13.16-5.47-13.16-12.87Z"/>
    <path class="cls-1" d="M205.34,166.56l.83-1.38c1.74,1.81,4.97,3.19,8.37,3.19,5.07,0,7.32-2.21,7.32-4.97,0-7.61-15.84-3.04-15.84-12.4,0-3.59,2.75-6.74,8.99-6.74,2.79,0,5.69.87,7.65,2.28l-.69,1.49c-2.1-1.45-4.68-2.14-6.96-2.14-4.93,0-7.14,2.28-7.14,5.08,0,7.61,15.84,3.12,15.84,12.32,0,3.59-2.86,6.71-9.13,6.71-3.77,0-7.39-1.41-9.24-3.44Z"/>
    <path class="cls-1" d="M260.03,170.19l-3.66-3.84c-2.07,2.43-4.97,3.66-8.45,3.66-4.82,0-8.26-2.57-8.26-6.34,0-2.94,1.74-5.15,6.56-7.97l-.04-.07c-2.57-2.68-3.26-4.17-3.26-6.13,0-3.12,2.32-5.18,6.02-5.18,3.41,0,5.58,1.81,5.58,4.82,0,2.5-1.49,4.24-5.8,6.78l7.5,7.94c.8-1.41,1.41-3.12,1.81-5.15l1.49.47c-.47,2.32-1.2,4.28-2.17,5.84l3.77,3.99-1.09,1.2ZM255.28,165.19l-8.01-8.45c-4.49,2.65-5.84,4.35-5.84,6.78,0,2.97,2.68,4.97,6.56,4.97,3.01,0,5.51-1.09,7.29-3.3ZM247.67,154.82c3.99-2.32,5.26-3.66,5.26-5.65s-1.41-3.44-3.99-3.44c-2.72,0-4.31,1.52-4.31,3.77,0,1.6.62,2.76,3.05,5.33Z"/>
    <path class="cls-1" d="M278.15,144.45h1.85v23.71h14.61v1.67h-16.46v-25.37Z"/>
    <path class="cls-1" d="M316.53,162.68h-14.72l-3.23,7.14h-1.99l11.67-25.37h1.85l11.67,25.37h-1.99l-3.26-7.14ZM315.84,161.13l-6.67-14.64-6.63,14.64h13.3Z"/>
    <path class="cls-1" d="M348.5,163.12c0,4.28-3.12,6.71-9.35,6.71h-11.31v-25.37h10.58c5.44,0,8.74,2.28,8.74,6.49,0,3.01-1.7,4.97-4.24,5.8,3.59.69,5.58,2.86,5.58,6.38ZM329.69,146.05v10.11h8.66c4.39,0,6.92-1.7,6.92-5.07s-2.54-5.04-6.92-5.04h-8.66ZM346.65,162.97c0-3.62-2.65-5.22-7.5-5.22h-9.46v10.48h9.46c4.86,0,7.5-1.6,7.5-5.26Z"/>
    <path class="cls-1" d="M354.11,157.14c0-7.36,5.62-12.87,13.19-12.87s13.2,5.47,13.2,12.87-5.65,12.87-13.2,12.87-13.19-5.51-13.19-12.87ZM378.62,157.14c0-6.42-4.86-11.16-11.31-11.16s-11.35,4.75-11.35,11.16,4.86,11.16,11.35,11.16,11.31-4.75,11.31-11.16Z"/>
    <path class="cls-1" d="M405.98,169.82l-6.05-8.48c-.8.11-1.6.18-2.47.18h-7.25v8.3h-1.85v-25.37h9.1c6.38,0,10.22,3.19,10.22,8.56,0,4.02-2.18,6.81-5.94,7.94l6.34,8.88h-2.1ZM397.46,159.89c5.44,0,8.34-2.54,8.34-6.89s-2.9-6.89-8.34-6.89h-7.25v13.77h7.25Z"/>
    <path class="cls-1" d="M431.61,162.68h-14.72l-3.23,7.14h-1.99l11.67-25.37h1.85l11.67,25.37h-1.99l-3.26-7.14ZM430.92,161.13l-6.67-14.64-6.63,14.64h13.3Z"/>
    <path class="cls-1" d="M446.5,146.12h-9.13v-1.67h20.12v1.67h-9.13v23.71h-1.85v-23.71Z"/>
    <path class="cls-1" d="M460.71,157.14c0-7.36,5.62-12.87,13.19-12.87s13.2,5.47,13.2,12.87-5.65,12.87-13.2,12.87-13.19-5.51-13.19-12.87ZM485.21,157.14c0-6.42-4.86-11.16-11.31-11.16s-11.35,4.75-11.35,11.16,4.86,11.16,11.35,11.16,11.31-4.75,11.31-11.16Z"/>
    <path class="cls-1" d="M512.57,169.82l-6.05-8.48c-.8.11-1.6.18-2.47.18h-7.25v8.3h-1.85v-25.37h9.1c6.38,0,10.22,3.19,10.22,8.56,0,4.02-2.18,6.81-5.94,7.94l6.34,8.88h-2.1ZM504.06,159.89c5.44,0,8.34-2.54,8.34-6.89s-2.9-6.89-8.34-6.89h-7.25v13.77h7.25Z"/>
    <path class="cls-1" d="M529.97,161.09v8.74h-1.85v-8.74l-10.22-16.64h2.03l9.17,14.93,9.17-14.93h1.92l-10.22,16.64Z"/>
  </g>
  <g>
    <polygon class="cls-1" points="126.26 91.62 125.15 91.62 96.09 3.35 79.33 3.35 53.51 78.89 59.49 94.92 83.8 24.58 84.92 24.58 115.09 115.09 129.62 115.09 167.61 3.35 156.43 3.35 126.26 91.62"/>
    <polygon class="cls-1" points="19 3.35 0 3.35 37.99 115.09 52.52 115.09 54.12 110.45 39.77 66.47 19 3.35"/>
    <polygon class="cls-1" points="257 73.92 257 73.93 257 73.93 257 73.92"/>
    <path class="cls-1" d="M323.33,10.4c-.65-4.51-1.52-7.05-1.52-7.05h-16.76s2.3,8.29,3.08,21.31l15.21-14.26Z"/>
    <path class="cls-1" d="M363.14,0c-16.79,0-28.96,10.27-34.55,16.13h0s-4.29,3.99-4.29,3.99l-28.14,28.28-42.71,43.33h0c-5.64,6.52-17.77,17.78-34.44,17.78-17.88,0-30.17-12.29-30.17-27.94,0-16.76,12.29-29.05,31.29-29.05s36.87,10.06,36.87,10.06v11.36l16.76-17.25v-9.75c0-29.05-17.87-46.93-49.16-46.93-27.94,0-43.58,21.23-43.58,21.23l5.59,4.47s12.29-16.76,37.99-16.76c17.87,0,32.4,14.53,32.4,37.99v6.71s-17.88-10.06-36.87-10.06c-32.4,0-49.17,16.76-49.17,37.99,0,18.99,17.88,36.87,48.05,36.87,23.46,0,37.99-20.11,37.99-20.11h1.12c0,7.82,2.23,16.76,2.23,16.76h16.76s-3.35-8.94-3.35-27.94l-.08-4,34.72-35.37v67.31h16.76V31.28s14.52-22.35,37.99-22.35c17.88,0,32.4,14.53,32.4,34.64v71.51h16.76V43.58c0-25.7-17.87-43.58-49.16-43.58Z"/>
    <path class="cls-1" d="M491.27,0c-23.47,0-37.99,20.11-37.99,20.11h-1.12c0-7.82-2.23-16.76-2.23-16.76h-16.76s3.35,8.94,3.35,27.93v15.44l20.09-19.74c5.54-6.49,17.76-18.05,34.66-18.05,17.88,0,32.4,14.53,32.4,34.64v71.51h16.76V43.58c0-25.7-17.87-43.58-49.16-43.58Z"/>
    <polygon class="cls-1" points="436.51 115.09 453.28 115.09 453.28 41.14 436.51 58.31 436.51 115.09"/>
  </g>
</svg>